<svg width="31" height="32" viewBox="0 0 31 32" fill="none" xmlns="http://www.w3.org/2000/svg">
<path fill-rule="evenodd" clip-rule="evenodd" d="M11 7H11.4142H27.4142H28.4142V8V24V25H27.4142H11.4142H11L10.7071 24.7071L2.70711 16.7071L2 16L2.70711 15.2929L10.7071 7.29289L11 7ZM11.8284 9L4.82843 16L11.8284 23H26.4142V9H11.8284ZM15.4142 11.5858L16.1213 12.2929L18.4142 14.5858L20.7071 12.2929L21.4142 11.5858L22.8284 13L22.1213 13.7071L19.8284 16L22.1213 18.2929L22.8284 19L21.4142 20.4142L20.7071 19.7071L18.4142 17.4142L16.1213 19.7071L15.4142 20.4142L14 19L14.7071 18.2929L17 16L14.7071 13.7071L14 13L15.4142 11.5858Z" fill="white"/>
</svg>
